User Type,Username,Date,Text
,scott_ehm,2011-08-20T23:17Z,THEY'RE FINALLY FREE! And thanks for the share!
,fish121,2011-08-21T00:54Z,thanks!
,TokeUp420,2011-08-24T09:50Z,WOOOHOOO Free at last! Except they had to plea guilty so they state didn't look bad.... fuck the US.
,biafra84,2011-10-22T23:51Z,you fuckin asses. People check the comments to see if its a good quality or maybe a good movie yes or no. Not to be told how it ends !!
,Bladewarez31,2011-12-07T15:45Z,"just wanted to say thank you, cant wait to watch this later at work :)"
,brisko2011,2012-01-26T21:56Z,"I agree with tokeup fuck the U.S. I lived there, hated it and left. Would never go back,  great insight to , thanks thornton wide"
,nemephis,2012-02-11T05:33Z,"From WikiPedia ""On August 19, 2011, they entered Alford pleas, which allow them to assert their innocence while acknowledging that prosecutors have enough evidence to convict them""

Only in ... "
,mrmilky,2012-03-17T16:45Z,"Bad quality... 

Mediainfo:

Format                                   : AVI
Format/Info                              : Audio Video Interleave
File size                                : 707 MiB
Duration                                 : 2h 31mn
Overall bit rate                         : 651 Kbps
Writing library                          : VirtualDub build 27021/release

Video
ID                                       : 0
Format                                   : MPEG-4 Visual
Format profile                           : Simple@L3
Format settings, BVOP                    : No
Format settings, QPel                    : No
Format settings, GMC                     : No warppoints
Format settings, Matrix                  : Default (H.263)
Codec ID                                 : XVID
Codec ID/Hint                            : XviD
Duration                                 : 2h 31mn
Bit rate                                 : 511 Kbps
Width                                    : 320 pixels
Height                                   : 240 pixels
Display aspect ratio                     : 4:3
Frame rate                               : 29.970 fps
Color space                              : YUV
Chroma subsampling                       : 4:2:0
Bit depth                                : 8 bits
Scan type                                : Progressive
Compression mode                         : Lossy
Bits/(Pixel*Frame)                       : 0.222
Stream size                              : 555 MiB (79%)
Writing library                          : XviD 1.1.0 Beta2 (UTC 2005-04-04)

Audio
ID                                       : 1
Format                                   : MPEG Audio
Format version                           : Version 1
Format profile                           : Layer 3
Mode                                     : Joint stereo
Mode extension                           : MS Stereo
Codec ID                                 : 55
Codec ID/Hint                            : MP3
Duration                                 : 2h 31mn
Bit rate mode                            : Constant
Bit rate                                 : 128 Kbps
Channel(s)                               : 2 channels
Sampling rate                            : 48.0 KHz
Compression mode                         : Lossy
Stream size                              : 139 MiB (20%)
Alignment                                : Split accross interleaves
Interleave, duration                     : 33 ms (1.00 video frame)
Interleave, preload duration             : 500 ms"
